HIERARCHY
ROOT Hips
{
	OFFSET 0.000000 0.000000 0.000000
	CHANNELS 6 Xposition Yposition Zposition Zrotation Yrotation Xrotation 
	JOINT LHipJoint
	{
		OFFSET 0.000000 0.000000 0.000000
		CHANNELS 3 Zrotation Yrotation Xrotation
		JOINT LeftUpLeg
		{
			OFFSET 1.363060 -1.794630 0.839290
			CHANNELS 3 Zrotation Yrotation Xrotation
			JOINT LeftLeg
			{
				OFFSET 2.448110 -6.726130 0.000000
				CHANNELS 3 Zrotation Yrotation Xrotation
				JOINT LeftFoot
				{
					OFFSET 2.562200 -7.039590 0.000000
					CHANNELS 3 Zrotation Yrotation Xrotation
					JOINT LeftToeBase
					{
						OFFSET 0.157640 -0.433110 2.322550
						CHANNELS 3 Zrotation Yrotation Xrotation
						End Site
						{
							OFFSET 0.000000 0.000000 0.000000
						}
					}
				}
			}
		}
	}
	JOINT RHipJoint
	{
		OFFSET 0.000000 0.000000 0.000000
		CHANNELS 3 Zrotation Yrotation Xrotation
		JOINT RightUpLeg
		{
			OFFSET -1.305520 -1.794630 0.839290
			CHANNELS 3 Zrotation Yrotation Xrotation
			JOINT RightLeg
			{
				OFFSET -2.542530 -6.985550 0.000000
				CHANNELS 3 Zrotation Yrotation Xrotation
				JOINT RightFoot
				{
					OFFSET -2.568260 -7.056230 0.000000
					CHANNELS 3 Zrotation Yrotation Xrotation
					JOINT RightToeBase
					{
						OFFSET -0.164730 -0.452590 2.363150
						CHANNELS 3 Zrotation Yrotation Xrotation
						End Site
						{
							OFFSET 0.000000 0.000000 0.000000
						}
					}
				}
			}
		}
	}
	JOINT LowerBack
	{
		OFFSET 0.000000 0.000000 0.000000
		CHANNELS 3 Zrotation Yrotation Xrotation
		JOINT Spine
		{
			OFFSET 0.028270 2.035590 -0.193380
			CHANNELS 3 Zrotation Yrotation Xrotation
			JOINT Spine1
			{
				OFFSET 0.056720 2.048850 -0.042750
				CHANNELS 3 Zrotation Yrotation Xrotation
				JOINT Neck
				{
					OFFSET 0.000000 0.000000 0.000000
					CHANNELS 3 Zrotation Yrotation Xrotation
					JOINT Neck1
					{
						OFFSET -0.054170 1.746240 0.172020
						CHANNELS 3 Zrotation Yrotation Xrotation
						JOINT Head
						{
							OFFSET 0.104070 1.761360 -0.123970
							CHANNELS 3 Zrotation Yrotation Xrotation
							End Site
							{
								OFFSET 0.000000 0.000000 0.000000
							}
						}
					}
				}
				JOINT LeftShoulder
				{
					OFFSET 0.000000 0.000000 0.000000
					CHANNELS 3 Zrotation Yrotation Xrotation
					JOINT LeftArm
					{
						OFFSET 3.362410 1.200890 -0.311210
						CHANNELS 3 Zrotation Yrotation Xrotation
						JOINT LeftForeArm
						{
							OFFSET 4.983000 -0.000000 -0.000000
							CHANNELS 3 Zrotation Yrotation Xrotation
							JOINT LeftHand
							{
								OFFSET 3.483560 -0.000000 -0.000000
								CHANNELS 3 Zrotation Yrotation Xrotation
								JOINT LeftFingerBase
								{
									OFFSET 0.000000 0.000000 0.000000
									CHANNELS 3 Zrotation Yrotation Xrotation
									JOINT LeftHandIndex1
									{
										OFFSET 0.715260 -0.000000 -0.000000
										CHANNELS 3 Zrotation Yrotation Xrotation
										End Site
										{
											OFFSET 0.000000 0.000000 0.000000
										}
									}
								}
								JOINT LThumb
								{
									OFFSET 0.000000 0.000000 0.000000
									CHANNELS 3 Zrotation Yrotation Xrotation
									End Site
									{
										OFFSET 0.000000 0.000000 0.000000
									}
								}
							}
						}
					}
				}
				JOINT RightShoulder
				{
					OFFSET 0.000000 0.000000 0.000000
					CHANNELS 3 Zrotation Yrotation Xrotation
					JOINT RightArm
					{
						OFFSET -3.136600 1.374050 -0.404650
						CHANNELS 3 Zrotation Yrotation Xrotation
						JOINT RightForeArm
						{
							OFFSET -5.241900 -0.000000 -0.000000
							CHANNELS 3 Zrotation Yrotation Xrotation
							JOINT RightHand
							{
								OFFSET -3.444170 -0.000000 -0.000000
								CHANNELS 3 Zrotation Yrotation Xrotation
								JOINT RightFingerBase
								{
									OFFSET 0.000000 0.000000 0.000000
									CHANNELS 3 Zrotation Yrotation Xrotation
									JOINT RightHandIndex1
									{
										OFFSET -0.622530 -0.000000 -0.000000
										CHANNELS 3 Zrotation Yrotation Xrotation
										End Site
										{
											OFFSET 0.000000 0.000000 0.000000
										}
									}
								}
								JOINT RThumb
								{
									OFFSET 0.000000 0.000000 0.000000
									CHANNELS 3 Zrotation Yrotation Xrotation
									End Site
									{
										OFFSET 0.000000 0.000000 0.000000
									}
								}
							}
						}
					}
				}
			}
		}
	}
}
MOTION
Frames: 4
Frame Time: 0.008333
-27.642468 16.714199 3.429230 175.314272 1.360977 -172.754279 -1.164083 -7.139593 -6.208183 -7.413546 13.218165 -40.184114 6.692564 15.644328 44.965911 -2.333610 11.334679 20.829148 0.798500 -5.703500 -15.926500 -1.872886 5.073261 -5.476519 2.400995 -20.504894 -41.892663 -10.182677 -15.591326 55.312295 1.581256 -6.961744 3.928130 -0.193000 2.828900 -7.802700 1.433550 1.960584 47.269477 -0.114597 0.904882 -2.219097 -3.133735 0.333760 -4.531954 -4.755918 2.746185 -20.176827 -0.324487 3.894850 0.338748 -2.454600 0.682800 8.190400 -5.787639 -6.219204 -0.487930 -76.421148 -28.916600 36.093996 64.375432 -51.551197 -46.695533 -2.318273 -0.665242 -34.768797 37.033652 -18.530513 -14.898000 -7.125000 0.000000 0.000000 7.019400 6.189200 -6.270100 9.766581 7.391469 0.350899 55.739494 12.571027 24.924226 -63.343933 50.086018 -48.249776 -0.042723 3.496707 -17.261335 -7.603187 -24.553856 4.047500 7.125000 0.000000 0.000000 23.700100 -56.493300 -6.950200 
-27.693728 16.702396 3.429114 175.462723 1.510495 -172.752294 -1.160169 -7.158847 -6.242109 -7.319974 12.790026 -40.177817 6.899216 15.812965 45.459572 -2.743927 12.015389 20.055906 0.979600 -6.300500 -17.658800 -1.850038 5.094267 -5.480177 2.303465 -20.222646 -41.852919 -10.175822 -15.603970 55.292225 1.640477 -7.101076 4.018638 -0.199900 2.879300 -7.943000 1.294183 1.917520 47.303957 -0.113881 0.784329 -2.240471 -3.087282 0.279140 -4.648993 -4.689505 3.201162 -20.126607 -0.317848 4.459909 0.123735 -2.338300 0.962500 8.006800 -5.738825 -6.254599 -0.374350 -76.164438 -30.248195 35.533216 65.135335 -51.522056 -47.569267 -2.397652 -0.810035 -36.111284 38.322227 -18.125273 -15.289200 -7.125000 0.000000 0.000000 7.984700 6.338400 -7.125600 9.629041 7.410652 0.438210 56.338809 13.779719 24.534093 -64.864250 50.315346 -49.676710 -0.029958 3.417122 -16.877503 -7.943686 -24.611604 4.192200 7.125000 0.000000 0.000000 23.384000 -56.542700 -6.878600 
-27.749733 16.682494 3.425874 175.476556 1.488782 -172.764309 -1.141792 -7.191756 -6.283715 -7.436692 12.487752 -40.326849 7.090637 15.996843 46.059933 -2.995557 12.358284 19.373393 1.267300 -7.135500 -20.117500 -1.869625 5.086815 -5.488775 2.094723 -20.146655 -41.833577 -10.227441 -15.606297 55.398562 1.651089 -7.124487 4.045453 -0.223100 3.040200 -8.390700 1.177486 1.806042 47.272447 -0.105907 0.561152 -2.242551 -2.986465 0.163961 -4.540405 -4.689064 3.207790 -20.224561 -0.336197 4.484284 0.216881 -2.360800 0.968200 8.079300 -5.674179 -6.264924 -0.290293 -75.944018 -31.761111 35.010610 65.366988 -51.351753 -47.914567 -2.423308 -0.869615 -36.167336 38.852278 -17.681185 -15.218600 -7.125000 0.000000 0.000000 8.442400 6.763800 -7.473000 9.518295 7.416595 0.503502 56.845033 15.175906 24.066207 -65.950911 50.409276 -50.687975 -0.029851 3.315198 -16.348981 -7.876704 -24.219991 4.067700 7.125000 0.000000 0.000000 23.184000 -56.082700 -6.551900 
-27.810944 16.651367 3.423907 175.404077 1.342637 -172.609276 -1.109927 -7.258037 -6.365647 -7.750472 12.233326 -40.724377 7.271528 16.182132 46.638670 -3.269329 12.766116 18.772356 1.627500 -8.042800 -22.844200 -1.923073 5.076394 -5.514623 1.837071 -20.152182 -41.962153 -10.286164 -15.576184 55.476829 1.666681 -7.156415 4.056862 -0.245200 3.186600 -8.798600 1.071866 1.628166 46.973359 -0.092716 0.276505 -2.243549 -2.866499 0.026870 -4.358186 -4.689573 3.429243 -20.480917 -0.319042 4.798413 0.119609 -2.293900 1.112700 8.038200 -5.660594 -6.285111 -0.208874 -75.398892 -33.242625 34.737708 64.790112 -50.966807 -47.402797 -2.436204 -0.801221 -35.353316 38.963599 -17.814149 -15.394900 -7.125000 0.000000 0.000000 8.466000 6.532600 -7.532600 9.432952 7.441661 0.591717 57.182588 16.667994 23.624015 -66.244130 50.280005 -50.905807 -0.004406 3.242094 -15.728849 -7.773003 -23.809922 3.941000 7.125000 0.000000 0.000000 23.001300 -55.621700 -6.233700 
